<?xml version="1.0" encoding="UTF-8"?>
<svg id="Layer_2" data-name="Layer 2" xmlns="http://www.w3.org/2000/svg" viewBox="0 0 500 500">
  <defs>
    <style>
      .cls-1 {
        fill: #1976d2;
        stroke-width: 0px;
      }
    </style>
  </defs>
  <path class="cls-1" d="m338.93,187.49c-13.17,1.21-24.07,10.55-30.47,21.67-13.19,22.92-8.62,51.6-1.66,75.74,7.73,26.77,18.41,52.72,31.6,77.26,13.21,24.56,29.01,47.73,47.06,69,2.26,2.64,4.54,5.27,6.86,7.86.85.96,1.92.98,2.78.52.9-.29,1.62-1.06,1.57-2.32-.23-5.1.47-10.24,1.01-15.3.27-2.57.55-5.14.73-7.73.08-1.17.14-2.35.17-3.53.03-1.24.26-3.04-.38-4.14-.68-1.17-2.09-2.16-3.06-3.11-1.08-1.07-2.15-2.13-3.2-3.22-1.92-1.97-3.81-3.98-5.67-6.01-3.91-4.26-7.68-8.65-11.29-13.17-14.16-17.66-26.02-37.2-35.32-57.84-9.3-20.63-15.96-42.48-19.76-64.8-.96-5.59-1.76-11.22-2.29-16.88-.55-5.89-.77-11.98.76-17.74,1.29-4.83,3.85-9.15,8.06-11.97,3.62-2.43,8.2-3.75,12.4-2.17,4.88,1.85,7.68,6.95,10.13,11.21,3.46,6,6.9,12.01,10.35,18.01,6.98,12.15,13.98,24.3,20.96,36.46,1.68,2.93,3.36,5.86,5.04,8.78,1.02,1.76,4.27,1.62,4.65-.61,4.62-27.15-1.74-56.93-18.8-78.84-7.68-9.86-19.08-18.38-32.23-17.17Z"/>
  <path class="cls-1" d="m357.16,298.97c-5.55-8.55-11.1-17.11-16.65-25.66-1.11-1.54-2.33-3.51-4.3-4-2.12-.53-3.73,1.1-4.82,2.69-2.67,3.92-.84,8.95.47,13,2.85,8.88,6.17,17.59,9.89,26.14,7.35,16.89,16.38,33.04,26.92,48.14,5.96,8.53,12.39,16.73,19.25,24.56.71.8,2.19.98,3.08.4,5.99-3.92,7.93-11.38,6.77-18.15-1.39-8.14-6.91-15.18-11.29-21.94-9.78-15.07-19.55-30.12-29.32-45.19Z"/>
  <path class="cls-1" d="m365.45,267.76c-4.29-6.13-8.57-12.26-12.85-18.4-.2-1.82-2.6-3.33-4.35-1.66-4.75,4.56-2.58,11.65-.79,17.05,2.11,6.37,4.6,12.63,7.41,18.72,5.49,11.92,12.32,23.23,20.31,33.65,4.57,5.95,9.47,11.62,14.74,16.96,1.13,1.14,3.21.93,4-.52,6.06-11.1.75-23.48-5.65-33.07-7.39-11.05-15.21-21.83-22.81-32.73Z"/>
  <path class="cls-1" d="m197.07,94.89c6.41,3.08,13.14,5.5,19.38,8.95,10.58,5.85,19.38,14.63,25.6,24.98,7,11.66,10.67,25.19,10.08,38.8-.12,2.81,4.56,3.55,4.99.68,1.87-12.56,3.86-25.61,9.69-37.04,2.83-5.53,6.54-10.5,11.33-14.48,5-4.16,10.98-7.06,16.89-9.69,6.09-2.7,12.31-5.14,18.17-8.34,5.29-2.89,10.16-6.47,14.3-10.83,7.93-8.33,13.34-19,15.68-30.23,2.66-12.79,1.44-26.2-4.2-38.04-.9-1.89-4.29-1.51-4.65.61-2.34,13.89-7.95,26.99-16.1,38.45-8.06,11.36-18.63,20.97-30.71,27.9-4.28,2.45-8.74,4.54-13.34,6.26,8.43-9.89,16.86-19.77,25.28-29.67,1.2-1.4.84-3.73-1.12-4.25-10.49-2.72-21.24-4.47-32.07-4.86-10.52-.38-21.04.56-31.4,2.43-6.15,1.11-12.24,2.55-18.27,4.21-.68.18-1.14.56-1.42,1.03-.03.04-.05.08-.08.12-.02.05-.05.11-.08.16-.48.96-.26,2.1.47,2.94,7.55,8.74,15.1,17.49,22.65,26.24-11.25-2.19-21.92-7.25-31-14.22-10.8-8.31-19.57-19.48-24.84-32.05-2.95-7.05-4.81-14.58-5.32-22.2-.16-2.39-3.44-3.61-4.74-1.28-11.06,19.9-6.77,46.51,9.08,62.62,4.52,4.6,9.96,8.02,15.76,10.8Z"/>
  <path class="cls-1" d="m327.24,161.2c10.53-15.65,14.99-35.22,12.11-53.86-.36-2.3-.82-4.56-1.41-6.81-.39-1.49-2.38-2.45-3.73-1.51-5.02,3.46-10.04,6.92-15.08,10.39-.94.64-1.47,1.72-1.17,2.87,2.6,9.62.99,20.1-4.18,28.6-5.19,8.56-13.91,14.26-23.68,16.25-5.44,1.1-11.1.91-16.46-.53-1.25-.35-2.86.42-3.12,1.77-1.95,9.92-8.06,18.63-16.69,23.81-8.79-6.62-14.9-16.93-16.29-27.86-.25-2.03-1.93-3.01-3.82-2.2-9.02,3.86-19.9,3.16-28.53-1.35-8.94-4.68-14.88-13.29-16.8-23.12-1.05-5.37-.72-10.94.91-16.15.24-.79.01-1.93-.66-2.47-4.2-3.44-8.4-6.86-12.61-10.3-.38-2.11-3.54-2.88-4.66-.96-.02.02-.04.03-.05.05-.61.6-.87,1.64-.65,2.52-4.23,19.35.49,39.84,11.53,56.17,10.87,16.06,27,28.2,45.18,34.84,18,6.58,38.06,7.49,56.41,1.72,17.47-5.5,33.17-16.61,43.44-31.86Z"/>
  <path class="cls-1" d="m213.88,148.02c7.57,1.7,16.12-.69,20.85-7.05,1.33-1.79,2.1-3.93,1.78-6.16-.33-2.23-1.81-4.24-4.03-4.89-4.39-1.29-7.6,3.02-11.83,3.06-4.21.04-7.82-3.23-8.12-7.46-.19-2.72.15-5.43-1.01-8.01-.55-1.21-1.32-2.2-2.29-2.92-.34-.48-.84-.86-1.43-1.1-2.18-.89-4.66-.2-6.44,1.22-1.82,1.45-2.8,3.71-3.32,5.94-.9,3.82-.79,7.89.24,11.68,2.06,7.51,7.85,13.95,15.59,15.69Z"/>
  <path class="cls-1" d="m288.51,132.26c-2.44-.64-4.81-1.74-7.4-1.48-1.3.13-2.6.54-3.69,1.24-.48.09-.91.32-1.23.69-1.5,1.75-2.03,4-1.4,6.24.65,2.28,2.37,3.97,4.28,5.28,3.39,2.31,7.52,3.51,11.59,3.75,8.08.51,16.25-3.33,20.25-10.51,3.74-6.69,3.93-15.74-.95-21.93-1.43-1.82-3.48-3.15-5.86-3.22-2.46-.07-4.69,1.36-5.58,3.65-.74,1.87-.45,3.88-.11,5.8.33,1.9.5,3.61-.13,5.48-1.36,4.04-5.76,6.07-9.77,5.01Z"/>
  <path class="cls-1" d="m242.31,292.99c-.18,4.31-.37,8.62-.54,12.93-.17,4.11-.49,8.25-.06,12.35.78,7.59,4.94,16.24,13.36,17.48,1.65.23,3.15-.65,3.21-2.45.64-19.3,1.28-38.58,1.91-57.88.33-9.65.64-19.29.96-28.93.16-4.82.33-9.65.48-14.47.08-2.37.16-4.74.23-7.11.07-2.2.2-4.38-.07-6.57-.56-4.39-3.69-9.23-8.7-8.94-2.66.16-5.22,1.36-6.58,3.41-.52.41-.88,1.04-.93,1.88-.01.19-.02.39-.02.58-.07.47-.1.96-.06,1.47l-2.1,50.14c-.37,8.7-.72,17.4-1.09,26.1Z"/>
  <path class="cls-1" d="m212.75,282.33c-.12,4.39-.24,8.78-.37,13.19-.11,3.89-.33,7.95,1.18,11.63,1.32,3.21,4.07,6.16,7.59,6.82,3.82.71,7.3-1.2,9.54-4.23,2.34-3.16,2.77-7.24,2.95-11.05.2-4.34.37-8.69.55-13.03.75-17.46,1.49-34.91,2.24-52.37.17-4.15.45-8.3.47-12.45.03-3.75-.25-7.67-1.67-11.18-2.43-6.04-8.45-10.72-15.22-9.58-1,.16-1.96.52-2.85,1.01-.9.14-1.74.71-2.04,1.7-.42.68-.54,1.49-.16,2.3-.49,16.97-.97,33.92-1.45,50.89-.24,8.78-.5,17.58-.75,26.36Z"/>
  <path class="cls-1" d="m189.59,187.83c-.61.27-1,.85-1.15,1.49-.98.26-1.8,1.04-1.82,2.34-.28,16.87-.58,33.73-.86,50.6-.14,8.43-.28,16.86-.43,25.29-.07,4.05-.14,8.09-.21,12.14-.06,4.04-.27,8.09-.16,12.13.1,3.49.82,7.31,3.56,9.74,2.48,2.22,6.21,3.2,9.23,1.45,3.09-1.79,3.8-5.53,3.88-8.81.11-4.14.05-8.29.07-12.41.08-16.77.16-33.55.24-50.32.05-9.49.09-18.98.14-28.47.02-4.08.22-8.69-2.34-12.15-2.39-3.23-6.41-4.71-10.16-3.02Z"/>
  <path class="cls-1" d="m170.53,254.41c.68,2.23,4.42,2.6,4.9,0,2.01-11.15,3.57-22.39,4.63-33.67.53-5.61.94-11.23,1.22-16.86.24-4.88.54-9.82-.01-14.69-.6-5.33-2.16-10.33-5.64-14.5-1.17-1.39-3.1-.67-4,.51-.56.73-1.11,1.46-1.67,2.2-.08.1-.13.22-.19.35-.41.28-.74.73-.9,1.37-4.99,19.2-5.73,39.38-2.3,58.92.98,5.53,2.31,11,3.96,16.37Z"/>
  <path class="cls-1" d="m299.58,340.8c4.78,4.5,9.56,9,14.33,13.49,1.79,1.68,5.02.04,4.25-2.47-3.34-10.98-8.43-21.4-15.07-30.75-1.4-1.97-4.73-1.4-4.74,1.28-.02,5.35-.03,10.68-.05,16.03,0,.83.33,1.45.82,1.86.11.19.25.39.45.56Z"/>
  <path class="cls-1" d="m268.79,300.82c-.04,4.73-.08,9.46-.12,14.19-.02,2.37-.04,4.74-.06,7.1-.02,2.1-.13,4.23.12,6.32.48,3.99,3.18,8.37,7.74,8.13,3.73-.19,5.89-3.47,6.55-6.83.79-4.12.54-8.52.67-12.69.14-4.74.28-9.46.43-14.2.58-18.84,1.15-37.68,1.73-56.52.14-4.73.28-9.45.43-14.19.13-4.45.66-9.1.05-13.53-.55-3.99-2.69-7.74-6.61-9.22-3.19-1.22-7.23-.07-9.14,2.81-.97,1.45-1.23,3.3-1.08,5.01-.15,18.42-.3,36.83-.47,55.24-.08,9.45-.15,18.92-.23,28.38Z"/>
  <path class="cls-1" d="m231.06,346.49c-.64-4.06-4.33-7.22-8.46-6.4-.24.05-.46.15-.65.27-3.79-.29-7.47,2.12-9.32,5.44-2.35,4.22-2.44,9.52-2.57,14.22-.32,10.24,1.1,20.54,4.08,30.33.81,2.67,5.08,2.28,4.99-.67-.23-7.67.99-15.26,3.63-22.46,1.27-3.48,2.92-6.81,4.84-9.98,1.97-3.27,4.1-6.76,3.47-10.75Z"/>
  <path class="cls-1" d="m250.42,347.56c-2.18-3.01-5.82-5.95-9.77-4.87-.29.07-.54.19-.75.34-.82.05-1.6.53-2.14,1.25-8.6,11.44-11.39,26.79-8.1,40.63.95,3.99,2.44,7.85,4.39,11.45.53.99,1.81,1.45,2.87,1.17,1.17-.33,1.73-1.33,1.87-2.45,1.05-8.65,3.48-17.23,7.13-25.14,3.15-6.83,9.87-14.95,4.5-22.38Z"/>
  <path class="cls-1" d="m273.15,352.3c-2.02-3.37-5.7-6.43-9.82-6.31-1.09.02-1.8.61-2.17,1.37-.23.11-.46.26-.64.49-9.24,11.25-12.93,26.26-10.37,40.57.72,4.03,2.02,7.9,3.75,11.61.86,1.88,4.33,1.52,4.64-.61,1.26-8.71,4.07-17.15,8.44-24.82,3.8-6.68,10.98-14.32,6.17-22.3Z"/>
  <path class="cls-1" d="m293.88,360.66c-.95-3.3-3.47-6.39-7.04-6.88-.05-.01-.09-.01-.14-.01-.83-.19-1.78-.02-2.33.66-.03.03-.06.07-.08.1-.09.09-.16.19-.23.29-5.12,6.3-9.21,13.49-11.07,21.45-1.89,8.06-1.4,16.45,1.22,24.29.9,2.71,4.87,2.25,4.99-.67.31-7.42,2.84-14.61,7.2-20.62,4.02-5.54,9.65-11.12,7.48-18.61Z"/>
  <path class="cls-1" d="m194.52,351.63c-19.04-3.18-38.08-6.36-57.12-9.56-4.74-.79-9.49-1.59-14.22-2.38-4.66-.77-9.32-1.74-14.04-2.11-7.82-.62-16.81,1.89-19.9,9.9-2.26,5.88,1.95,10.27,7.06,12.52.28.27.66.49,1.15.6.36.07.7.15,1.06.22,1.15.37,2.31.62,3.41.75,23.48,5.16,46.96,10.32,70.44,15.48,7.11,1.57,14.21,3.13,21.33,4.69,1.57.35,3.24-.72,3.21-2.45-.16-8.41-.34-16.81-.5-25.22-.02-1.02-.77-2.27-1.87-2.45Z"/>
  <path class="cls-1" d="m340.57,399.9c-2.15-5.93-1.59-12.44,1.66-17.86.79-1.33.09-3.41-1.52-3.73-13.36-2.68-26.73-5.37-40.1-8.04-1.86-.38-3.66,1.16-3.13,3.12.78,2.89,1.29,5.97.76,8.96-.54,3-1.97,5.57-4.08,7.75-.02.03-.04.05-.06.07-.09.1-.17.2-.24.32-.02.03-.05.06-.07.1-.01.01-.02.02-.02.03-.05.08-.09.18-.13.27-.07.16-.12.32-.15.48h0c-.02.1-.03.19-.03.28-.08.76.13,1.58.71,2.04.41.33.77.67,1.31.78.24.05.49.06.71.05,13.75,2.84,27.51,5.67,41.25,8.51,1.74.36,3.83-1.17,3.13-3.13Z"/>
  <path class="cls-1" d="m416.18,378.87c-.2-1.13-1.4-1.81-2.45-1.87-3.41-.18-6.81-.38-10.23-.56-1.05-.06-1.76.44-2.13,1.13-.4.54-.57,1.24-.32,2.09,3.46,11.24,5.67,22.98,6.18,34.75.46,10.44-.54,20.85-5.79,30.09-4.69,8.25-12.61,15-22.36,15.87-10.31.93-20.56-3.8-27.49-11.3-8.5-9.22-12.19-21.99-12.93-34.28-.02-.33-.1-.62-.21-.88.11-1.61-1.14-3.32-3.1-2.68-3.99,1.29-7.97,2.58-11.96,3.87-1.36.44-2.08,1.73-1.78,3.12,3.13,14.25,6.69,28.99,14.93,41.26,7.06,10.5,17.8,19.49,30.58,21.59,13.24,2.19,26.5-3.13,36.03-12.28,10.18-9.77,15.36-23.56,17.18-37.31,2.33-17.62-.95-35.32-4.16-52.61Z"/>
  <path class="cls-1" d="m157.44,385.57c-19.17-4.55-38.35-9.1-57.53-13.65-3.45-.93-6.88-1.93-10.4-2.61-1.75-.33-3.03.73-3.21,2.46-1.93,17.74-3.85,35.48-5.77,53.22-.55,5.02-1.09,10.04-1.64,15.07-.09.81.54,1.84,1.26,2.2,6.01,2.94,13.4,3.02,19.9,1.85.8-.15,1.62-.99,1.78-1.78.97-4.79,1.6-9.71,2.27-14.56.57-4.17.86-8.38,1.27-12.57.17-1.79.31-3.15.59-4.72.11-.61.23-1.22.42-1.82,0-.01.01-.03.02-.05.4.03.77.08.97.08,1.19,0,2.37,0,3.56.07,1.73.09,3.42.44,5.09.87-1.2,10.92-2.41,21.84-3.61,32.76-.15,1.35,1.28,2.57,2.54,2.54,12.52-.29,25.05-.59,37.57-.88,1.47-.03,2.4-1.14,2.54-2.54.64-6.36,1.28-12.72,1.91-19.08.13-1.34-1.27-2.57-2.54-2.54-2.98.07-5.96.15-8.94.23-.15-4.77-.3-9.54-.46-14.3,3.79-.08,7.57-.15,11.36-.23,1.4-.03,2.51-1.14,2.54-2.54.13-5,.25-10.01.39-15.02.03-1.08-.8-2.2-1.87-2.45Zm-52.23,23.12c.1-.07.32-.1.57-.1-.18.07-.37.11-.57.1Z"/>
</svg>