<?xml version="1.0" encoding="UTF-8"?>
<svg id="Layer_2" data-name="Layer 2" xmlns="http://www.w3.org/2000/svg" viewBox="0 0 1216.16 140.26">
  <defs>
    <style>
      .cls-1 {
        fill: #fff;
        stroke-width: 0px;
      }
    </style>
  </defs>
  <path class="cls-1" d="m21.48,20.65h30l.75,1.04,33.14,52.24,33.44-52.24.75-1.04h30v105.23h-28.06v-61.94l-34.18,52.69-1.94,3.13-2.09-3.13-33.73-52.69v61.94h-28.06V20.65Z"/>
  <path class="cls-1" d="m164.7,36.4c-2.64-2.54-3.96-5.9-3.96-10.07s1.32-7.54,3.96-10.07c2.63-2.54,5.94-3.81,9.93-3.81s7.29,1.27,9.93,3.81c2.63,2.54,3.95,5.9,3.95,10.07s-1.32,7.54-3.95,10.07c-2.64,2.54-5.95,3.81-9.93,3.81s-7.29-1.27-9.93-3.81Zm-3.21,6.49h26.27v82.99h-26.27V42.89Z"/>
  <path class="cls-1" d="m226.71,50.8c7.96-6.47,16.96-9.7,27.02-9.7,8.76,0,16.34,2.84,22.76,8.51,6.42,5.67,9.63,13.19,9.63,22.54v53.73h-27.02v-44.18c0-4.97-.95-8.9-2.84-11.79-1.89-2.88-5.37-4.33-10.45-4.33-9.55,0-15.92,2.99-19.11,8.96v51.35h-27.02V42.89h27.02v7.91Z"/>
  <path class="cls-1" d="m308.28,115.58c-8.91-8.16-13.36-18.56-13.36-31.2s4.48-23.01,13.43-31.12c8.96-8.11,20.35-12.17,34.18-12.17,12.34,0,22.56,3.71,30.67,11.12,8.11,7.41,12.16,17.99,12.16,31.72,0,2.89-.1,5.13-.3,6.72l-.3,1.94h-62.09c1.39,3.48,3.83,6.22,7.31,8.21,3.48,1.99,7.56,2.99,12.24,2.99,7.56,0,13.38-2.99,17.46-8.96l1.19-1.79,1.94,1.04,19.11,9.4,2.09,1.04-1.19,2.09c-3.98,6.57-9.53,11.74-16.64,15.52-7.12,3.78-15.1,5.67-23.96,5.67-13.73,0-25.05-4.08-33.96-12.24Zm49.78-44.18c-1.69-4.28-6.97-6.42-15.82-6.42-7.37,0-13.04,2.14-17.02,6.42h32.84Z"/>
  <path class="cls-1" d="m451.8,41.1v26.12h-2.24c-9.06,0-15.82,2.12-20.3,6.34-4.48,4.23-6.72,9.13-6.72,14.7v37.61h-28.36V42.89h28.36v8.21c8.75-6.67,17.76-10,27.02-10h2.24Z"/>
  <path class="cls-1" d="m453.59,42.89h27.31l.6,1.49,16.27,44.33,16.12-44.33.6-1.49h27.31l-1.04,2.84-28.96,78.66-.6,1.49h-27.32l-.6-1.49-28.66-78.66-1.04-2.84Z"/>
  <path class="cls-1" d="m545.39,52.14c.6-.6,2.21-1.62,4.85-3.06,2.64-1.44,7.31-3.13,14.03-5.08,6.72-1.94,13.76-2.91,21.12-2.91,9.15,0,16.82,2.74,22.99,8.21,6.17,5.47,9.26,13.88,9.26,25.23v51.35h-27.17v-6.87c-6.77,5.87-15.62,8.81-26.57,8.81-7.76,0-14.6-2.11-20.52-6.34-5.92-4.23-8.88-10.22-8.88-17.99,0-10.05,3.71-17.66,11.12-22.84,7.41-5.17,16.49-7.76,27.24-7.76h17.76c-.2-2.39-.92-4.2-2.16-5.45-1.25-1.24-3.86-1.87-7.84-1.87-1.79,0-3.63.13-5.52.37-1.89.25-3.61.55-5.15.9-1.54.35-3.01.75-4.4,1.19-1.39.45-2.61.9-3.66,1.34s-1.97.85-2.76,1.19c-.8.35-1.44.67-1.94.97l-.6.3-2.39,1.34-1.19-2.24-8.21-15.97-.9-1.64,1.49-1.19Zm45.08,39.7h-16.57c-8.06,0-12.09,2.74-12.09,8.21,0,4.68,3.73,7.02,11.19,7.02,4.88,0,9.01-1.77,12.39-5.3,3.38-3.53,5.08-6.84,5.08-9.93Z"/>
  <path class="cls-1" d="m630.99,18.34c2.84-2.64,6.34-3.96,10.52-3.96s7.69,1.32,10.52,3.96c2.84,2.64,4.25,6.25,4.25,10.82v.3c0,1-.05,2.09-.15,3.28-.1,1.19-.35,3.13-.75,5.82-.4,2.69-1.14,5.15-2.24,7.39-1.1,2.24-2.44,4.48-4.03,6.72-1.59,2.24-3.83,4.03-6.72,5.37-2.89,1.34-6.17,2.02-9.85,2.02h-2.24v-11.64h2.24c1.49,0,2.93-.45,4.33-1.34,1.39-.9,2.29-1.99,2.69-3.28-3.68-.4-6.74-1.91-9.18-4.55-2.44-2.64-3.66-5.99-3.66-10.07,0-4.58,1.42-8.18,4.25-10.82Z"/>
  <path class="cls-1" d="m693.01,66.4c-.3.45-.45,1.12-.45,2.01s1.62,1.77,4.85,2.61c3.23.85,7.16,1.87,11.79,3.06,4.63,1.19,9.25,2.76,13.88,4.7,4.63,1.94,8.56,4.83,11.79,8.66,3.23,3.83,4.85,8.38,4.85,13.66,0,8.86-3.34,15.52-10,20-6.67,4.48-16.02,6.72-28.06,6.72-14.93,0-27.37-3.33-37.32-10l-1.49-1.04.9-1.79,8.96-16.72,1.19-2.24,2.09,1.49c.8.5,1.94,1.12,3.43,1.87,1.49.75,4.48,1.77,8.96,3.06,4.48,1.29,8.9,1.94,13.28,1.94,3.58,0,6.27-.25,8.06-.75,1.79-.5,2.84-1.02,3.13-1.57.3-.55.45-1.27.45-2.16v-.15c0-1.29-1.64-2.49-4.93-3.58-3.28-1.09-7.26-2.24-11.94-3.43-4.68-1.19-9.36-2.66-14.03-4.4-4.68-1.74-8.66-4.38-11.94-7.91-3.28-3.53-4.93-7.79-4.93-12.76,0-8.56,3.53-15.12,10.6-19.7,7.06-4.58,15.72-6.87,25.97-6.87,13.43,0,24.63,3.43,33.58,10.3l.15.15,1.19,1.04-.75,1.64-8.51,16.12-1.34,2.39-2.09-1.64c-.7-.5-1.67-1.09-2.91-1.79-1.25-.69-3.81-1.64-7.69-2.84-3.88-1.19-7.76-1.79-11.64-1.79-2.89,0-5.05.18-6.49.52-1.44.35-2.31.75-2.61,1.19Z"/>
  <path class="cls-1" d="m788.38,20.65h30.6l.6,1.49,27.91,71.35,27.91-71.35.6-1.49h30.6l-1.19,2.99-41.5,100.75-.6,1.49h-31.64l-.6-1.49-41.49-100.75-1.19-2.99Z"/>
  <path class="cls-1" d="m908.69,52.14c.6-.6,2.21-1.62,4.85-3.06,2.64-1.44,7.31-3.13,14.03-5.08,6.72-1.94,13.75-2.91,21.12-2.91,9.15,0,16.82,2.74,22.99,8.21,6.17,5.47,9.25,13.88,9.25,25.23v51.35h-27.16v-6.87c-6.77,5.87-15.62,8.81-26.57,8.81-7.76,0-14.6-2.11-20.52-6.34-5.92-4.23-8.88-10.22-8.88-17.99,0-10.05,3.7-17.66,11.12-22.84,7.41-5.17,16.49-7.76,27.24-7.76h17.76c-.2-2.39-.92-4.2-2.17-5.45-1.25-1.24-3.86-1.87-7.83-1.87-1.79,0-3.63.13-5.52.37-1.89.25-3.61.55-5.15.9-1.54.35-3.01.75-4.4,1.19-1.39.45-2.61.9-3.66,1.34s-1.97.85-2.76,1.19c-.8.35-1.44.67-1.94.97l-.6.3-2.39,1.34-1.19-2.24-8.21-15.97-.89-1.64,1.49-1.19Zm45.08,39.7h-16.57c-8.06,0-12.09,2.74-12.09,8.21,0,4.68,3.73,7.02,11.2,7.02,4.87,0,9.01-1.77,12.39-5.3,3.38-3.53,5.08-6.84,5.08-9.93Z"/>
  <path class="cls-1" d="m992.28,42.89h27.02v44.33c0,4.98.95,8.91,2.84,11.79,1.89,2.89,5.37,4.33,10.45,4.33,4.58,0,8.53-.82,11.87-2.46,3.33-1.64,5.75-3.85,7.24-6.64v-51.35h27.02v82.99h-27.02v-7.76c-7.96,6.47-17.07,9.7-27.31,9.7-8.76,0-16.3-2.81-22.61-8.43-6.32-5.62-9.48-13.11-9.48-22.46v-54.03Z"/>
  <path class="cls-1" d="m1089.9,13.19h26.27v112.69h-26.27V13.19Z"/>
  <path class="cls-1" d="m1135.72,20.35h28.51v22.54h22.99v24.48h-22.99v24.03c0,4.28.52,7.44,1.57,9.48,1.04,2.04,3.16,3.06,6.34,3.06,2.09,0,4.1-.32,6.05-.97,1.94-.65,3.36-1.27,4.25-1.87l1.34-1.04,2.24-2.09,1.34,2.84,6.87,15.82.45,1.34-.9,1.04c-5.87,5.87-13.73,8.81-23.58,8.81-5.17,0-9.75-.55-13.73-1.64-3.98-1.09-7.19-2.76-9.63-5-2.44-2.24-4.43-4.58-5.97-7.01-1.54-2.44-2.69-5.45-3.43-9.03-.75-3.58-1.22-6.79-1.42-9.63-.2-2.84-.3-6.24-.3-10.22v-17.91h-13.58v-24.48h13.58v-22.54Z"/>
</svg>